# xmcd CD database file
#
# Track frame offsets:
#	150
#	19075
#	37075
#	49127
#
# Disc length: 904 seconds
#
# Revision: 0
# Processed by: cddbd v1.5PL3 Copyright (c) Steve Scherf et al.
# Submitted via: CDex 1.51
#
DISCID=2e038604
DTITLE=モーニング娘。おとめ組 - 友情〜心のブスにはならねぇ！〜 (EP)
DYEAR=2004
DGENRE=Pop
TTITLE0=友情〜心のブスにはならねぇ！〜
TTITLE1=Say Yeah!-もっとミラクルナイト-（モーニング娘。おとめ組Version）
TTITLE2=サマーナイトタウン（モーニング娘。おとめ組Version）
TTITLE3=友情〜心のブスにはならねぇ！〜 (Instrumental)
EXTD=YEAR: 2004
EXTT0=
EXTT1=
EXTT2=
EXTT3=
PLAYORDER=
